<?xml version="1.0" standalone="no"?>
<!DOCTYPE svg PUBLIC "-//W3C//DTD SVG 20010904//EN"
 "http://www.w3.org/TR/2001/REC-SVG-20010904/DTD/svg10.dtd">
<svg version="1.0" xmlns="http://www.w3.org/2000/svg"
 width="427.000000pt" height="427.000000pt" viewBox="0 0 427.000000 427.000000"
 preserveAspectRatio="xMidYMid meet">
<metadata>
Created by potrace 1.11, written by Peter Selinger 2001-2013
</metadata>
<g transform="translate(0.000000,427.000000) scale(0.100000,-0.100000)"
fill="#000000" stroke="none">
<path d="M1940 4160 c-173 -22 -261 -39 -378 -75 -516 -154 -956 -513 -1209
-985 -121 -225 -191 -444 -227 -710 -23 -174 -12 -482 23 -643 6 -23 12 -53
14 -67 3 -14 15 -59 27 -100 159 -550 544 -1010 1055 -1260 188 -93 394 -155
640 -196 63 -10 393 -13 460 -3 33 4 78 10 100 13 181 23 389 88 591 187 569
277 977 814 1098 1444 25 130 28 161 31 345 3 157 -6 271 -30 410 -14 78 -72
286 -95 335 -5 11 -23 54 -40 95 -118 284 -353 589 -600 780 -25 19 -47 37
-50 40 -16 19 -190 127 -280 173 -146 75 -393 164 -509 183 -14 2 -37 7 -49
10 -13 2 -43 7 -65 10 -23 3 -53 8 -67 11 -39 8 -379 10 -440 3z"/>
</g>
</svg>
